<svg xmlns="http://www.w3.org/2000/svg"  viewBox="0 0 40 40" width="40px" height="40px"><path fill="#98ccfd" d="M1.5,5c0-1.733,1.767-3.5,3.5-3.5h30c1.733,0,3.5,1.767,3.5,3.5v26c0,1.733-1.767,3.5-3.5,3.5H6.819 L1.5,38.933V5z"/><path fill="#4788c7" d="M35,2c1.458,0,3,1.542,3,3v26c0,1.458-1.542,3-3,3H7H6.638L6.36,34.232L2,37.865V5 c0-1.458,1.542-3,3-3H35 M35,1H5C3,1,1,3,1,5v35l6-5h28c2,0,4-2,4-4V5C39,3,37,1,35,1L35,1z"/><path fill="#fff" d="M20 7.259A1.696 1.696 0 1 0 20 10.651 1.696 1.696 0 1 0 20 7.259zM21 25L21 13 17 13 17 15 19 15 19 25 17 25 17 27 23 27 23 25z"/></svg>