<svg id="Capa_1" enable-background="new 0 0 512 512" height="512" viewBox="0 0 512 512" width="512" xmlns="http://www.w3.org/2000/svg" xmlns:xlink="http://www.w3.org/1999/xlink"><linearGradient id="SVGID_1_" gradientUnits="userSpaceOnUse" x1="256" x2="256" y1="451.038" y2="83.157"><stop offset="0" stop-color="#ffc2cc"/><stop offset="1" stop-color="#fff2f4"/></linearGradient><linearGradient id="SVGID_2_" gradientUnits="userSpaceOnUse" x1="256" x2="256" y1="481.038" y2="30.962"><stop offset="0" stop-color="#fd3a84"/><stop offset="1" stop-color="#ffa68d"/></linearGradient><g id="Safety_Network_2_"><g><g><path d="m245.658 311.101c8.945 2.944 13.767 2.334 21.885-.439 47.666-20.098 78.457-66.504 78.457-118.228v-49.189c0-11.572-6.68-22.207-16.699-26.924l-59.971-29.985c-4.131-2.08-8.73-3.179-13.33-3.179s-9.199 1.099-13.301 3.164l-59.678 29.854c-10.341 4.863-17.021 15.498-17.021 27.07v49.189c0 51.724 30.791 98.13 79.658 118.667zm25.342 34.937c0-8.291-6.709-15-15-15s-15 6.709-15 15v60c0 8.291 6.709 15 15 15s15-6.709 15-15zm-45 75h-211c-8.291 0-15 6.709-15 15s6.709 15 15 15h211c8.291 0 15-6.709 15-15s-6.709-15-15-15zm271 0h-211c-8.291 0-15 6.709-15 15s6.709 15 15 15h211c8.291 0 15-6.709 15-15s-6.709-15-15-15z" fill="url(#SVGID_1_)"/></g></g><g><g><path d="m256 391.038c-24.814 0-45 20.186-45 45s20.186 45 45 45 45-20.186 45-45-20.186-45-45-45zm126.599-298.501-120-60c-4.199-2.1-9-2.1-13.198 0l-120 60c-5.101 2.701-8.401 7.8-8.401 13.5v86.4c0 79.499 54 148.799 131.4 167.999 1.663.833 5.532.835 7.2 0 77.4-19.199 131.4-88.499 131.4-167.998v-86.4c0-5.7-3.3-10.8-8.401-13.501zm-51.599 99.901c0 45.599-27.299 86.699-69.3 104.399-4.814 1.606-6.581 1.608-11.4 0-42.001-17.701-69.3-58.801-69.3-104.399v-49.2c0-5.7 3.3-11.1 8.401-13.5l60-30c4.199-2.1 9-2.1 13.198 0l60 30c5.101 2.401 8.401 7.8 8.401 13.5z" fill="url(#SVGID_2_)"/></g></g></g></svg>